<svg id="Layer_1" data-name="Layer 1" xmlns="http://www.w3.org/2000/svg" viewBox="0 0 500 500"><defs><style>.cls-1{fill:#eaeaea;}.cls-2{fill:#cecece;}.cls-3{fill:#3a3a3a;}.cls-4{fill:#2d2d2d;}.cls-5{fill:#fcd32b;}.cls-6{fill:none;stroke:#000;stroke-linecap:round;stroke-linejoin:round;stroke-width:15px;}</style></defs><title>seagull</title><path class="cls-1" d="M336.24,311.13a106.8,106.8,0,0,1-106.8-106.8V50.54A42.37,42.37,0,0,0,187.08,8.18h-3.5a42.37,42.37,0,0,0-42.36,42.36V81.28h6.46a14,14,0,0,1,0,28h-6.46V272.1A94.76,94.76,0,0,0,236,366.86h39.74a126.31,126.31,0,0,0,112.8-69.39A106.34,106.34,0,0,1,336.24,311.13Z"/><path class="cls-2" d="M193.44,50.54V204.33A106.83,106.83,0,0,0,318.23,309.61a106.82,106.82,0,0,1-88.79-105.28V50.54A42.37,42.37,0,0,0,187.08,8.18h-3.5a42.26,42.26,0,0,0-16.25,3.24A42.36,42.36,0,0,1,193.44,50.54Z"/><path class="cls-3" d="M336.24,311.13A106.8,106.8,0,0,0,443,204.33H229.44A106.8,106.8,0,0,0,336.24,311.13Z"/><path class="cls-4" d="M336.24,284.13a106.83,106.83,0,0,1-103.35-79.8h-3.45a106.8,106.8,0,1,0,213.59,0h-3.45A106.83,106.83,0,0,1,336.24,284.13Z"/><path class="cls-5" d="M71,118.24a14,14,0,0,1-14-14v-9a14,14,0,0,1,14-14h76.71a14,14,0,0,1,0,28H84A14,14,0,0,1,71,118.24Z"/><path class="cls-6" d="M71,118.24a14,14,0,0,1-14-14v-9a14,14,0,0,1,14-14h76.71a14,14,0,0,1,0,28H84A14,14,0,0,1,71,118.24Z"/><line class="cls-6" x1="170.16" y1="57.37" x2="181.04" y2="57.37"/><path class="cls-6" d="M336.24,311.13A106.8,106.8,0,0,0,443,204.33H229.44A106.8,106.8,0,0,0,336.24,311.13Z"/><path class="cls-6" d="M336.24,311.13a106.8,106.8,0,0,1-106.8-106.8V50.54A42.37,42.37,0,0,0,187.08,8.18h-3.5a42.37,42.37,0,0,0-42.36,42.36V81.28h6.46a14,14,0,0,1,0,28h-6.46V272.1A94.76,94.76,0,0,0,236,366.86h39.74a126.31,126.31,0,0,0,112.8-69.39A106.34,106.34,0,0,1,336.24,311.13Z"/><line class="cls-6" x1="229.44" y1="366.86" x2="229.44" y2="491.82"/><line class="cls-6" x1="276.77" y1="366.86" x2="276.77" y2="491.82"/><line class="cls-6" x1="181.04" y1="491.82" x2="297.72" y2="491.82"/></svg>